<svg xmlns="http://www.w3.org/2000/svg" width="103" height="32" class="svg-icon logo-BI-icon logo-vertically-center-icon"><title>Business Insider logo</title><desc>The words &quot;Business Insider&quot;.</desc><path fill="#111" fill-rule="evenodd" d="M7.98 32h2.4V19.2h-2.4zm8.8-.2h2.13v-8.07L27.96 32V19.4H25.8v7.93l-9.03-8.13zm16.06-3.1c1.17.92 2.57 1.44 4.08 1.44 1.46 0 2.5-.5 2.5-1.6 0-.98-.67-1.36-1.8-1.8l-1.87-.63c-1.7-.6-3-1.5-3-3.53 0-2.18 1.96-3.37 4.3-3.37 1.46 0 2.77.36 3.8 1v2.17c-1.07-.8-2.24-1.33-3.74-1.33-1.28 0-2.25.48-2.25 1.5 0 .9.6 1.26 1.67 1.63l2.07.72c2 .7 2.92 1.8 2.92 3.6 0 2.25-2 3.5-4.6 3.5-1.72 0-3.18-.48-4.08-1.1v-2.2zM47.1 32h2.4V19.2h-2.4zm13.64-1.94c2.7 0 4.14-1.73 4.14-4.46 0-2.76-1.44-4.48-4.14-4.48h-2.67v8.94h2.67zM55.9 19.2h4.92c3.8 0 6.25 2.5 6.25 6.4 0 3.9-2.45 6.4-6.25 6.4H55.9V19.2zm23.15 0v1.92h-5.8v3.08h5.2v1.9h-5.2v3.96h5.8V32h-8V19.2zm8.5 5.8h2.38c1.4 0 2.2-.78 2.2-1.96s-.8-1.96-2.2-1.96h-2.38V25zm0 1.8V32h-2.12V19.2h4.54c2.58 0 4.25 1.33 4.25 3.84 0 2.14-.93 3.37-2.9 3.7l4.5 5.26h-2.4l-4.37-5.2h-1.5zM7.15 6.6C8.08 6.24 8.8 5.2 8.8 3.8 8.8 1.45 7.16.22 4.5.22H0V13.4h4.9c2.66 0 4.33-1.32 4.33-3.8 0-1.38-.88-2.6-2.08-3zM2.1 5.74v-3.6h2.36c1.48 0 2.27.54 2.27 1.78s-.8 1.82-2.27 1.82H2.1zm0 1.85h2.75c1.46 0 2.26.73 2.26 1.93 0 1.18-.8 1.93-2.24 1.93H2.1V7.6zm16.9 6c3.07 0 5.13-1.84 5.13-5.45V.22h-2.17V7.9c0 2.53-1.04 3.7-2.96 3.7s-2.95-1.17-2.95-3.7V.22h-2.17v7.9c0 3.64 2.08 5.48 5.13 5.48zm10.23-1.16c.9.65 2.36 1.16 4.07 1.16 2.6 0 4.58-1.33 4.58-3.73 0-1.9-.92-3.07-2.92-3.82l-2.06-.77c-1.06-.38-1.67-.77-1.67-1.73 0-1.08.96-1.6 2.25-1.6 1.5 0 2.67.6 3.73 1.42v-2.3C36.2.4 34.9.02 33.45.02c-2.35 0-4.3 1.27-4.3 3.6 0 2.15 1.28 3.1 3 3.74l1.84.7c1.15.44 1.8.84 1.8 1.87 0 1.2-1.02 1.73-2.48 1.73-1.5 0-2.9-.56-4.07-1.52v2.34zM45.63.22h-2.17V13.4h2.16V.2zm6.17 13.15h2.1V4.8l8.78 8.77V.2H60.6v8.42L51.8 0v13.37zM76.22.23V2.2H70.6v3.17h5.04V7.3H70.6v4.1h5.62v2h-7.75V.22h7.75zm5.05 12.2c.9.65 2.35 1.16 4.06 1.16 2.6 0 4.58-1.34 4.58-3.74 0-1.9-.9-3.06-2.9-3.8l-2.07-.8c-1.06-.37-1.66-.76-1.66-1.72 0-1.07.95-1.6 2.25-1.6 1.5 0 2.66.6 3.73 1.43v-2.3C88.23.4 86.9 0 85.47 0c-2.35 0-4.3 1.26-4.3 3.58 0 2.17 1.28 3.1 3 3.75l1.85.7c1.14.44 1.8.85 1.8 1.87 0 1.18-1.03 1.72-2.5 1.72-1.5 0-2.9-.56-4.05-1.52v2.33zm13.08 0c.9.65 2.36 1.16 4.07 1.16 2.6 0 4.58-1.34 4.58-3.74 0-1.9-.92-3.06-2.92-3.8l-2.06-.8c-1.06-.37-1.67-.76-1.67-1.72 0-1.07.96-1.6 2.25-1.6 1.5 0 2.67.6 3.73 1.43v-2.3C101.3.4 100 0 98.56 0c-2.35 0-4.3 1.26-4.3 3.58 0 2.17 1.28 3.1 3 3.75l1.84.7c1.15.44 1.8.85 1.8 1.87 0 1.18-1.03 1.72-2.48 1.72-1.5 0-2.9-.56-4.07-1.52v2.33z" class="logo-BI logo-vertically-center-icon-fill"/></svg>