<?xml version="1.0" encoding="UTF-8" standalone="no"?><!DOCTYPE svg PUBLIC "-//W3C//DTD SVG 1.1//EN" "http://www.w3.org/Graphics/SVG/1.1/DTD/svg11.dtd"><svg width="100%" height="100%" viewBox="0 0 2134 1625" version="1.1" xmlns="http://www.w3.org/2000/svg" xmlns:xlink="http://www.w3.org/1999/xlink" xml:space="preserve" xmlns:serif="http://www.serif.com/" style="fill-rule:evenodd;clip-rule:evenodd;stroke-linejoin:round;stroke-miterlimit:2;"><g><path d="M1945.83,0l-1758.33,0c-28.862,0 -55.883,7.096 -80.329,18.792l955.329,955.329l214.121,-205.779c0,0 0.017,-0.021 0.021,-0.03c0.004,-0.008 0.021,-0.016 0.021,-0.016l749.529,-749.488c-24.45,-11.704 -51.488,-18.808 -80.359,-18.808Z" style="fill:#fff;fill-rule:nonzero;"/></g><g><path d="M2114.57,107.2l-705.346,705.308l705.321,705.321c11.696,-24.446 18.791,-51.466 18.791,-80.329l0,-1250c0,-28.846 -7.079,-55.863 -18.766,-80.3Z" style="fill:#fff;fill-rule:nonzero;"/></g><g><path d="M18.792,107.171c-11.696,24.446 -18.792,51.466 -18.792,80.329l0,1250c0,28.846 7.088,55.871 18.775,80.308l705.346,-705.308l-705.329,-705.329Z" style="fill:#fff;fill-rule:nonzero;"/></g><g><path d="M1320.84,900.888l-214.15,205.804c-12.209,12.208 -28.2,18.312 -44.188,18.312c-15.987,0 -31.983,-6.104 -44.187,-18.312l-205.817,-205.813l-705.358,705.313c24.45,11.704 51.487,18.808 80.358,18.808l1758.33,0c28.863,0 55.884,-7.096 80.33,-18.792l-705.321,-705.321Z" style="fill:#fff;fill-rule:nonzero;"/></g></svg>