<svg xmlns="http://www.w3.org/2000/svg" width="82" height="21"><path fill="#F42" d="M35.92 2.6A7.43 7.43 0 0 0 30.67.4H19.82v19.84h7.44V7.84h2.38c.66 0 1.3.27 1.76.73l2.56 2.57a2.48 2.48 0 0 1 .73 1.75v7.34h7.43v-8.37a7.44 7.44 0 0 0-2.18-5.26l-4.03-4zM74.34.4v7.36c0 .66-.26 1.3-.73 1.75l-2.56 2.58a2.48 2.48 0 0 1-1.75.73H65.7a7.42 7.42 0 0 0 1.2-4V.4h-7.45v7.36c0 .66-.26 1.3-.73 1.75l-2.57 2.58a2.48 2.48 0 0 1-1.75.73h-2.38V.4H44.6v19.84h10.85a7.44 7.44 0 0 0 5.26-2.18l2.5-2.48v4.66h7.12a7.44 7.44 0 0 0 5.26-2.18l4.02-4.02a7.44 7.44 0 0 0 2.18-5.25V.4h-7.44zM0 7.86h4.96v12.4h7.43V7.84h4.95V.4H0z"/></svg>