<svg xmlns="http://www.w3.org/2000/svg" fill-rule="evenodd" viewBox="0 0 1251 1018" clip-rule="evenodd"><g><path fill="#fff" d="M394.66 1013.28c468.6 0 724.82-388.2 724.82-724.82 0-11.02-.22-22-.72-32.93 49.74-35.96 92.98-80.83 127.07-131.9-45.64 20.28-94.76 33.93-146.3 40.1 52.6-31.55 93-81.44 112.03-140.9C1162.34 52 1107.83 73.2 1049.8 84.64 1003.3 35.13 937.13 4.17 863.84 4.17c-140.68 0-254.76 114.08-254.76 254.72 0 19.98 2.23 39.42 6.6 58.07C403.95 306.32 216.2 204.95 90.58 50.8c-21.88 37.65-34.5 81.38-34.5 128.05 0 88.38 44.98 166.4 113.37 212.05-41.8-1.3-81.06-12.76-115.38-31.86-.04 1.07-.04 2.1-.04 3.25 0 123.37 87.8 226.38 204.38 249.72-21.4 5.84-43.92 8.96-67.16 8.96-16.4 0-32.36-1.6-47.88-4.6 32.43 101.23 126.48 174.9 237.98 176.95-87.2 68.34-197.03 109.04-316.4 109.04-20.54 0-40.83-1.17-60.77-3.52 112.74 72.26 246.62 114.43 390.5 114.43"/></g></svg>